<?xml version="1.0" standalone="no"?>
<!DOCTYPE svg PUBLIC "-//W3C//DTD SVG 20010904//EN"
 "http://www.w3.org/TR/2001/REC-SVG-20010904/DTD/svg10.dtd">
<svg version="1.0" xmlns="http://www.w3.org/2000/svg"
 width="1200.000000pt" height="1200.000000pt" viewBox="0 0 1200.000000 1200.000000"
 preserveAspectRatio="xMidYMid meet">

<g transform="translate(0.000000,1200.000000) scale(0.100000,-0.100000)"
fill="#ffffff" stroke="none">
<path d="M5640 11989 c-1726 -107 -3292 -930 -4365 -2294 -1232 -1566 -1600
-3666 -975 -5565 498 -1515 1568 -2759 2995 -3485 1284 -653 2772 -816 4190
-458 1219 307 2341 1021 3148 2003 1216 1481 1652 3438 1180 5295 -586 2309
-2507 4061 -4864 4439 -414 67 -900 91 -1309 65z m96 -616 c4 -71 8 -162 8
-203 l1 -75 -40 -2 c-121 -7 -307 -26 -430 -44 -239 -33 -525 -94 -525 -110 0
-6 20 -91 45 -191 26 -100 44 -186 42 -192 -3 -6 -38 -20 -78 -30 -449 -115
-1017 -380 -1427 -667 -222 -155 -427 -324 -609 -502 l-82 -80 -148 141 -148
142 -58 -63 c-176 -190 -374 -437 -511 -639 -33 -49 -63 -88 -67 -88 -5 0 -83
49 -174 108 l-165 108 91 134 c384 565 900 1074 1489 1467 551 368 1195 644
1837 787 288 65 683 120 879 125 l62 1 8 -127z m771 112 c1115 -103 2171 -542
3028 -1260 379 -318 737 -712 1004 -1105 l91 -134 -164 -108 c-91 -59 -169
-108 -174 -108 -5 0 -35 39 -68 88 -138 203 -310 420 -489 615 l-79 87 -111
-108 c-60 -59 -127 -123 -147 -141 l-37 -34 -117 112 c-540 519 -1212 908
-1926 1115 -84 24 -154 48 -156 54 -1 5 18 91 43 190 25 100 45 185 45 191 0
31 -582 129 -880 149 l-115 7 1 75 c0 41 4 132 8 203 l8 127 37 0 c20 0 109
-7 198 -15z m-154 -1796 c67 -6 125 -14 129 -18 4 -3 -42 -415 -102 -915 -61
-500 -110 -916 -110 -925 0 -13 21 -20 98 -34 350 -64 720 -273 982 -555 l85
-91 739 554 c407 305 743 555 747 555 14 0 162 -215 246 -355 90 -150 231
-429 235 -465 3 -23 -36 -41 -847 -388 l-850 -364 37 -111 c122 -368 124 -757
7 -1134 -18 -57 -30 -105 -27 -108 2 -3 373 -162 824 -355 450 -192 829 -354
841 -360 l23 -10 -21 -52 c-76 -194 -313 -605 -446 -776 l-18 -22 -734 550
c-404 302 -739 550 -744 550 -4 0 -20 -15 -35 -32 -252 -309 -648 -547 -1039
-625 -51 -11 -94 -21 -97 -24 -2 -2 44 -411 104 -909 74 -611 105 -907 98
-911 -24 -15 -279 -31 -488 -31 -179 0 -465 16 -477 26 -1 1 47 411 107 912
60 500 106 912 102 915 -4 3 -47 13 -97 23 -258 51 -528 177 -760 355 -65 50
-221 201 -276 268 l-35 41 -733 -550 c-403 -302 -738 -547 -745 -545 -15 6
-120 153 -205 289 -134 213 -293 531 -275 548 5 4 385 168 844 364 459 196
836 359 839 362 2 2 -10 50 -28 107 -118 378 -116 764 7 1134 l38 113 -661
282 c-1115 476 -1040 443 -1037 464 2 10 45 105 97 209 97 198 218 403 321
542 l60 81 743 -558 744 -557 121 122 c177 178 315 278 526 379 137 66 297
120 426 143 71 14 94 22 94 34 0 17 -207 1744 -216 1801 -5 35 -4 37 28 43
132 24 607 33 811 14z m-5070 -1265 c94 -47 173 -87 174 -88 2 -2 -31 -76 -73
-167 -115 -247 -249 -602 -287 -759 -6 -25 -4 -26 186 -79 106 -30 193 -55
195 -56 2 -2 -9 -48 -23 -104 -111 -437 -151 -802 -142 -1273 7 -384 43 -665
128 -1012 22 -87 38 -160 37 -161 -2 -2 -88 -27 -193 -56 -104 -29 -192 -54
-194 -56 -7 -4 118 -373 168 -498 27 -66 83 -194 125 -284 42 -91 75 -165 73
-167 -8 -7 -348 -174 -355 -174 -18 0 -169 333 -257 565 -497 1314 -470 2791
76 4083 64 150 171 372 181 372 4 0 86 -39 181 -86z m9686 -44 c647 -1359 716
-2913 191 -4310 -91 -242 -243 -580 -262 -580 -7 0 -347 167 -355 174 -2 2 31
76 73 167 42 90 105 236 139 324 61 155 161 453 154 459 -2 2 -89 27 -194 55
-104 29 -191 54 -193 56 -2 1 9 48 23 104 194 767 196 1563 4 2325 -16 65 -29
119 -27 121 2 1 89 26 195 56 191 53 192 53 187 79 -14 57 -116 354 -163 472
-28 70 -84 200 -126 289 -41 90 -74 163 -72 165 9 8 344 173 353 173 6 1 39
-57 73 -129z m-9193 -5237 c138 -204 310 -421 488 -616 l79 -86 149 141 148
140 98 -93 c531 -510 1141 -875 1832 -1098 63 -21 148 -46 189 -56 40 -11 75
-25 78 -31 2 -6 -16 -92 -42 -192 -25 -100 -45 -185 -45 -190 0 -35 723 -152
934 -152 30 0 58 -5 61 -11 4 -5 1 -98 -6 -205 l-12 -194 -36 0 c-20 0 -110 7
-200 15 -1264 117 -2455 672 -3361 1566 -245 243 -489 533 -665 793 l-95 140
162 107 c90 59 168 108 174 108 6 1 37 -38 70 -86z m8691 -21 l163 -109 -91
-134 c-289 -424 -690 -855 -1104 -1185 -776 -618 -1687 -1010 -2665 -1148
-174 -25 -486 -53 -494 -45 -7 7 -28 387 -22 397 3 5 57 12 120 15 280 16 876
117 876 148 0 6 -20 91 -45 191 -25 99 -44 185 -43 190 2 6 72 30 156 54 557
161 1104 442 1568 804 142 110 233 190 372 324 l102 100 38 -35 c20 -18 87
-82 147 -142 l111 -108 106 118 c185 205 350 415 473 601 26 39 53 72 59 72 6
0 84 -49 173 -108z"/>
</g>
</svg>
